<mxfile host="Electron" modified="2024-01-07T18:45:44.151Z" agent="Mozilla/5.0 (Windows NT 10.0; Win64; x64) AppleWebKit/537.36 (KHTML, like Gecko) draw.io/22.1.15 Chrome/120.0.6099.109 Electron/28.1.0 Safari/537.36" etag="gLpI0KSUIA_yDm3oBKBQ" version="22.1.15" type="device">
  <diagram name="Page-1" id="iMk0fkADi3fu9BNBoA8n">
    <mxGraphModel dx="863" dy="512" grid="1" gridSize="10" guides="1" tooltips="1" connect="1" arrows="1" fold="1" page="1" pageScale="1" pageWidth="850" pageHeight="1100" math="0" shadow="0">
      <root>
        <mxCell id="0" />
        <mxCell id="1" parent="0" />
        <mxCell id="UowoolXHHow6wMS4l7hl-9" value="" style="rounded=0;whiteSpace=wrap;html=1;fontFamily=Computer Modern;align=left;shadow=1;" parent="1" vertex="1">
          <mxGeometry x="351" y="200" width="115" height="100" as="geometry" />
        </mxCell>
        <mxCell id="UowoolXHHow6wMS4l7hl-1" value="&amp;nbsp; R1&amp;nbsp;←&amp;nbsp;[addr(A) + 4 * R2] + 1" style="rounded=0;whiteSpace=wrap;html=1;fontFamily=Computer Modern;align=left;shadow=1;" parent="1" vertex="1">
          <mxGeometry x="140" y="200" width="180" height="20" as="geometry" />
        </mxCell>
        <mxCell id="UowoolXHHow6wMS4l7hl-2" value="&amp;nbsp; R3 ←&amp;nbsp;4 * R2" style="rounded=0;whiteSpace=wrap;html=1;fontFamily=Computer Modern;align=left;" parent="1" vertex="1">
          <mxGeometry x="351" y="200" width="115" height="20" as="geometry" />
        </mxCell>
        <mxCell id="UowoolXHHow6wMS4l7hl-3" value="&amp;nbsp; R3 ←&amp;nbsp;addr(A) + R3" style="rounded=0;whiteSpace=wrap;html=1;fontFamily=Computer Modern;align=left;" parent="1" vertex="1">
          <mxGeometry x="351" y="220" width="115" height="20" as="geometry" />
        </mxCell>
        <mxCell id="UowoolXHHow6wMS4l7hl-4" value="&amp;nbsp; R5 ←&amp;nbsp;[R4]" style="rounded=0;whiteSpace=wrap;html=1;fontFamily=Computer Modern;align=left;" parent="1" vertex="1">
          <mxGeometry x="351" y="240" width="115" height="20" as="geometry" />
        </mxCell>
        <mxCell id="UowoolXHHow6wMS4l7hl-5" value="&amp;nbsp; R1 ←&amp;nbsp;R5 + 1" style="rounded=0;whiteSpace=wrap;html=1;fontFamily=Computer Modern;align=left;" parent="1" vertex="1">
          <mxGeometry x="351" y="260" width="115" height="20" as="geometry" />
        </mxCell>
        <mxCell id="UowoolXHHow6wMS4l7hl-6" value="&amp;nbsp; return" style="rounded=0;whiteSpace=wrap;html=1;fontFamily=Computer Modern;align=left;" parent="1" vertex="1">
          <mxGeometry x="351" y="280" width="115" height="20" as="geometry" />
        </mxCell>
        <mxCell id="UowoolXHHow6wMS4l7hl-7" value="&amp;nbsp; return" style="rounded=0;whiteSpace=wrap;html=1;fontFamily=Computer Modern;align=left;shadow=1;" parent="1" vertex="1">
          <mxGeometry x="140" y="220" width="50" height="20" as="geometry" />
        </mxCell>
        <mxCell id="UowoolXHHow6wMS4l7hl-8" value="" style="endArrow=classic;startArrow=classic;html=1;rounded=0;" parent="1" edge="1">
          <mxGeometry width="50" height="50" relative="1" as="geometry">
            <mxPoint x="140" y="275" as="sourcePoint" />
            <mxPoint x="320" y="275" as="targetPoint" />
          </mxGeometry>
        </mxCell>
        <mxCell id="UowoolXHHow6wMS4l7hl-10" value="variable length" style="text;html=1;strokeColor=none;fillColor=none;align=center;verticalAlign=middle;whiteSpace=wrap;rounded=0;fontFamily=Computer Modern;" parent="1" vertex="1">
          <mxGeometry x="180" y="270" width="100" height="30" as="geometry" />
        </mxCell>
        <mxCell id="UowoolXHHow6wMS4l7hl-11" value="" style="endArrow=classic;startArrow=classic;html=1;rounded=0;" parent="1" edge="1">
          <mxGeometry width="50" height="50" relative="1" as="geometry">
            <mxPoint x="140" y="256.43" as="sourcePoint" />
            <mxPoint x="190" y="257" as="targetPoint" />
          </mxGeometry>
        </mxCell>
        <mxCell id="UowoolXHHow6wMS4l7hl-12" value="" style="endArrow=classic;startArrow=classic;html=1;rounded=0;" parent="1" edge="1">
          <mxGeometry width="50" height="50" relative="1" as="geometry">
            <mxPoint x="351" y="320" as="sourcePoint" />
            <mxPoint x="466" y="320" as="targetPoint" />
          </mxGeometry>
        </mxCell>
        <mxCell id="UowoolXHHow6wMS4l7hl-13" value="fixed length" style="text;html=1;strokeColor=none;fillColor=none;align=center;verticalAlign=middle;whiteSpace=wrap;rounded=0;fontFamily=Computer Modern;" parent="1" vertex="1">
          <mxGeometry x="356" y="315" width="100" height="30" as="geometry" />
        </mxCell>
        <mxCell id="UowoolXHHow6wMS4l7hl-14" value="CISC" style="text;html=1;strokeColor=none;fillColor=none;align=center;verticalAlign=middle;whiteSpace=wrap;rounded=0;fontFamily=Computer Modern;" parent="1" vertex="1">
          <mxGeometry x="180" y="170" width="100" height="30" as="geometry" />
        </mxCell>
        <mxCell id="UowoolXHHow6wMS4l7hl-15" value="RISC" style="text;html=1;strokeColor=none;fillColor=none;align=center;verticalAlign=middle;whiteSpace=wrap;rounded=0;fontFamily=Computer Modern;" parent="1" vertex="1">
          <mxGeometry x="356" y="170" width="100" height="30" as="geometry" />
        </mxCell>
        <mxCell id="cX08sPH2XXJ4aZE651Kv-1" value="" style="rounded=0;whiteSpace=wrap;html=1;fillColor=#f5f5f5;fontColor=#333333;strokeColor=#0D0D0D;" parent="1" vertex="1">
          <mxGeometry x="311" y="399" width="20" height="97" as="geometry" />
        </mxCell>
        <mxCell id="cX08sPH2XXJ4aZE651Kv-2" value="" style="endArrow=open;html=1;rounded=0;endFill=0;" parent="1" edge="1">
          <mxGeometry width="50" height="50" relative="1" as="geometry">
            <mxPoint x="275" y="496" as="sourcePoint" />
            <mxPoint x="275" y="359" as="targetPoint" />
          </mxGeometry>
        </mxCell>
        <mxCell id="cX08sPH2XXJ4aZE651Kv-3" value="" style="endArrow=open;html=1;rounded=0;endFill=0;" parent="1" edge="1">
          <mxGeometry width="50" height="50" relative="1" as="geometry">
            <mxPoint x="275" y="496" as="sourcePoint" />
            <mxPoint x="414" y="496" as="targetPoint" />
          </mxGeometry>
        </mxCell>
        <mxCell id="cX08sPH2XXJ4aZE651Kv-4" value="" style="rounded=0;whiteSpace=wrap;html=1;fillColor=#f5f5f5;fontColor=#333333;strokeColor=#0D0D0D;" parent="1" vertex="1">
          <mxGeometry x="360" y="491" width="20" height="5" as="geometry" />
        </mxCell>
        <mxCell id="cX08sPH2XXJ4aZE651Kv-5" value="ARM&lt;br&gt;(RISC)" style="text;html=1;strokeColor=none;fillColor=none;align=center;verticalAlign=middle;whiteSpace=wrap;rounded=0;fontFamily=Computer Modern;" parent="1" vertex="1">
          <mxGeometry x="350" y="502" width="40" height="30" as="geometry" />
        </mxCell>
        <mxCell id="cX08sPH2XXJ4aZE651Kv-6" value="x86-64&lt;br&gt;(CISC)" style="text;html=1;strokeColor=none;fillColor=none;align=center;verticalAlign=middle;whiteSpace=wrap;rounded=0;fontFamily=Computer Modern;" parent="1" vertex="1">
          <mxGeometry x="296" y="502" width="50" height="30" as="geometry" />
        </mxCell>
        <mxCell id="cX08sPH2XXJ4aZE651Kv-8" value="≈ 50" style="text;html=1;strokeColor=none;fillColor=none;align=center;verticalAlign=middle;whiteSpace=wrap;rounded=0;fontFamily=Computer Modern;" parent="1" vertex="1">
          <mxGeometry x="355" y="476" width="30" height="10" as="geometry" />
        </mxCell>
        <mxCell id="cX08sPH2XXJ4aZE651Kv-9" value="981 &lt;br&gt;(at least)" style="text;html=1;strokeColor=none;fillColor=none;align=center;verticalAlign=middle;whiteSpace=wrap;rounded=0;fontFamily=Computer Modern;" parent="1" vertex="1">
          <mxGeometry x="288.5" y="370" width="65" height="20" as="geometry" />
        </mxCell>
        <mxCell id="cX08sPH2XXJ4aZE651Kv-10" value="Number of &lt;br&gt;instructions" style="text;html=1;strokeColor=none;fillColor=none;align=center;verticalAlign=middle;whiteSpace=wrap;rounded=0;fontFamily=Computer Modern;rotation=0;" parent="1" vertex="1">
          <mxGeometry x="231" y="328" width="89" height="30" as="geometry" />
        </mxCell>
        <mxCell id="cX08sPH2XXJ4aZE651Kv-13" value="0" style="text;html=1;strokeColor=none;fillColor=none;align=center;verticalAlign=middle;whiteSpace=wrap;rounded=0;fontFamily=Computer Modern;rotation=0;" parent="1" vertex="1">
          <mxGeometry x="261" y="480" width="14" height="30" as="geometry" />
        </mxCell>
        <mxCell id="O-PCgVhMF34WY9ha6jFn-5" value="200" style="text;html=1;strokeColor=none;fillColor=none;align=center;verticalAlign=middle;whiteSpace=wrap;rounded=0;fontFamily=Computer Modern;rotation=0;" vertex="1" parent="1">
          <mxGeometry x="256" y="460" width="14" height="30" as="geometry" />
        </mxCell>
        <mxCell id="O-PCgVhMF34WY9ha6jFn-10" value="400" style="text;html=1;strokeColor=none;fillColor=none;align=center;verticalAlign=middle;whiteSpace=wrap;rounded=0;fontFamily=Computer Modern;rotation=0;" vertex="1" parent="1">
          <mxGeometry x="256" y="441" width="14" height="30" as="geometry" />
        </mxCell>
        <mxCell id="O-PCgVhMF34WY9ha6jFn-22" value="800" style="text;html=1;strokeColor=none;fillColor=none;align=center;verticalAlign=middle;whiteSpace=wrap;rounded=0;fontFamily=Computer Modern;rotation=0;" vertex="1" parent="1">
          <mxGeometry x="256" y="401" width="14" height="30" as="geometry" />
        </mxCell>
        <mxCell id="O-PCgVhMF34WY9ha6jFn-49" value="600" style="text;html=1;strokeColor=none;fillColor=none;align=center;verticalAlign=middle;whiteSpace=wrap;rounded=0;fontFamily=Computer Modern;rotation=0;" vertex="1" parent="1">
          <mxGeometry x="256" y="426" width="14" height="20" as="geometry" />
        </mxCell>
        <mxCell id="O-PCgVhMF34WY9ha6jFn-50" value="1000" style="text;html=1;strokeColor=none;fillColor=none;align=center;verticalAlign=middle;whiteSpace=wrap;rounded=0;fontFamily=Computer Modern;rotation=0;" vertex="1" parent="1">
          <mxGeometry x="250" y="384" width="20" height="24" as="geometry" />
        </mxCell>
        <mxCell id="O-PCgVhMF34WY9ha6jFn-51" value="" style="endArrow=none;html=1;rounded=0;entryX=1;entryY=1;entryDx=0;entryDy=0;" edge="1" parent="1">
          <mxGeometry width="50" height="50" relative="1" as="geometry">
            <mxPoint x="285" y="386" as="sourcePoint" />
            <mxPoint x="275" y="386" as="targetPoint" />
          </mxGeometry>
        </mxCell>
        <mxCell id="O-PCgVhMF34WY9ha6jFn-52" value="" style="endArrow=none;html=1;rounded=0;entryX=1;entryY=1;entryDx=0;entryDy=0;" edge="1" parent="1">
          <mxGeometry width="50" height="50" relative="1" as="geometry">
            <mxPoint x="285" y="395.96" as="sourcePoint" />
            <mxPoint x="275" y="395.96" as="targetPoint" />
          </mxGeometry>
        </mxCell>
        <mxCell id="O-PCgVhMF34WY9ha6jFn-53" value="" style="endArrow=none;html=1;rounded=0;entryX=1;entryY=1;entryDx=0;entryDy=0;" edge="1" parent="1">
          <mxGeometry width="50" height="50" relative="1" as="geometry">
            <mxPoint x="285" y="406" as="sourcePoint" />
            <mxPoint x="275" y="406" as="targetPoint" />
          </mxGeometry>
        </mxCell>
        <mxCell id="O-PCgVhMF34WY9ha6jFn-54" value="" style="endArrow=none;html=1;rounded=0;entryX=1;entryY=1;entryDx=0;entryDy=0;" edge="1" parent="1">
          <mxGeometry width="50" height="50" relative="1" as="geometry">
            <mxPoint x="285" y="415.97" as="sourcePoint" />
            <mxPoint x="275" y="415.97" as="targetPoint" />
          </mxGeometry>
        </mxCell>
        <mxCell id="O-PCgVhMF34WY9ha6jFn-55" value="" style="endArrow=none;html=1;rounded=0;entryX=1;entryY=1;entryDx=0;entryDy=0;" edge="1" parent="1">
          <mxGeometry width="50" height="50" relative="1" as="geometry">
            <mxPoint x="285" y="426" as="sourcePoint" />
            <mxPoint x="275" y="426" as="targetPoint" />
          </mxGeometry>
        </mxCell>
        <mxCell id="O-PCgVhMF34WY9ha6jFn-56" value="" style="endArrow=none;html=1;rounded=0;entryX=1;entryY=1;entryDx=0;entryDy=0;" edge="1" parent="1">
          <mxGeometry width="50" height="50" relative="1" as="geometry">
            <mxPoint x="285" y="435.97" as="sourcePoint" />
            <mxPoint x="275" y="435.97" as="targetPoint" />
          </mxGeometry>
        </mxCell>
        <mxCell id="O-PCgVhMF34WY9ha6jFn-57" value="" style="endArrow=none;html=1;rounded=0;entryX=1;entryY=1;entryDx=0;entryDy=0;" edge="1" parent="1">
          <mxGeometry width="50" height="50" relative="1" as="geometry">
            <mxPoint x="285" y="446" as="sourcePoint" />
            <mxPoint x="275" y="446" as="targetPoint" />
          </mxGeometry>
        </mxCell>
        <mxCell id="O-PCgVhMF34WY9ha6jFn-58" value="" style="endArrow=none;html=1;rounded=0;entryX=1;entryY=1;entryDx=0;entryDy=0;" edge="1" parent="1">
          <mxGeometry width="50" height="50" relative="1" as="geometry">
            <mxPoint x="285" y="455.97" as="sourcePoint" />
            <mxPoint x="275" y="455.97" as="targetPoint" />
          </mxGeometry>
        </mxCell>
        <mxCell id="O-PCgVhMF34WY9ha6jFn-59" value="" style="endArrow=none;html=1;rounded=0;entryX=1;entryY=1;entryDx=0;entryDy=0;" edge="1" parent="1">
          <mxGeometry width="50" height="50" relative="1" as="geometry">
            <mxPoint x="285" y="465.97" as="sourcePoint" />
            <mxPoint x="275" y="465.97" as="targetPoint" />
          </mxGeometry>
        </mxCell>
        <mxCell id="O-PCgVhMF34WY9ha6jFn-60" value="" style="endArrow=none;html=1;rounded=0;entryX=1;entryY=1;entryDx=0;entryDy=0;" edge="1" parent="1">
          <mxGeometry width="50" height="50" relative="1" as="geometry">
            <mxPoint x="285" y="476" as="sourcePoint" />
            <mxPoint x="275" y="476" as="targetPoint" />
          </mxGeometry>
        </mxCell>
        <mxCell id="O-PCgVhMF34WY9ha6jFn-61" value="" style="endArrow=none;html=1;rounded=0;entryX=1;entryY=1;entryDx=0;entryDy=0;" edge="1" parent="1">
          <mxGeometry width="50" height="50" relative="1" as="geometry">
            <mxPoint x="285" y="486" as="sourcePoint" />
            <mxPoint x="275" y="486" as="targetPoint" />
          </mxGeometry>
        </mxCell>
      </root>
    </mxGraphModel>
  </diagram>
</mxfile>
